<mxfile host="Electron" agent="Mozilla/5.0 (X11; Linux x86_64) AppleWebKit/537.36 (KHTML, like Gecko) draw.io/26.1.1 Chrome/132.0.6834.210 Electron/34.3.3 Safari/537.36" version="26.1.1">
  <diagram name="Page-1" id="btb9k7ennXGVm7oPU-ji">
    <mxGraphModel dx="1434" dy="839" grid="1" gridSize="10" guides="1" tooltips="1" connect="1" arrows="1" fold="1" page="1" pageScale="1" pageWidth="827" pageHeight="583" math="0" shadow="0">
      <root>
        <mxCell id="0" />
        <mxCell id="1" parent="0" />
        <mxCell id="9NMMCVd3kOC8opcWcWRm-4" style="edgeStyle=orthogonalEdgeStyle;rounded=0;orthogonalLoop=1;jettySize=auto;html=1;entryX=0.5;entryY=0;entryDx=0;entryDy=0;fontSize=10;" parent="1" source="9NMMCVd3kOC8opcWcWRm-1" target="9NMMCVd3kOC8opcWcWRm-3" edge="1">
          <mxGeometry relative="1" as="geometry" />
        </mxCell>
        <mxCell id="9NMMCVd3kOC8opcWcWRm-1" value="&lt;b&gt;LogQueue&lt;/b&gt;" style="rounded=1;whiteSpace=wrap;html=1;fontSize=10;" parent="1" vertex="1">
          <mxGeometry x="212" y="50" width="120" height="20" as="geometry" />
        </mxCell>
        <mxCell id="9NMMCVd3kOC8opcWcWRm-5" style="edgeStyle=orthogonalEdgeStyle;rounded=0;orthogonalLoop=1;jettySize=auto;html=1;entryX=0.5;entryY=1;entryDx=0;entryDy=0;fontSize=10;" parent="1" source="9NMMCVd3kOC8opcWcWRm-2" target="9NMMCVd3kOC8opcWcWRm-3" edge="1">
          <mxGeometry relative="1" as="geometry" />
        </mxCell>
        <mxCell id="9NMMCVd3kOC8opcWcWRm-2" value="&lt;b&gt;LogBodyQueue&lt;/b&gt;" style="rounded=1;whiteSpace=wrap;html=1;fontSize=10;" parent="1" vertex="1">
          <mxGeometry x="208" y="140" width="120" height="20" as="geometry" />
        </mxCell>
        <mxCell id="9NMMCVd3kOC8opcWcWRm-9" style="edgeStyle=orthogonalEdgeStyle;rounded=0;orthogonalLoop=1;jettySize=auto;html=1;fontSize=10;" parent="1" source="9NMMCVd3kOC8opcWcWRm-3" target="9NMMCVd3kOC8opcWcWRm-8" edge="1">
          <mxGeometry relative="1" as="geometry" />
        </mxCell>
        <mxCell id="9NMMCVd3kOC8opcWcWRm-3" value="&lt;b&gt;QueueSet&lt;/b&gt;&lt;br&gt;Monitored by write_task" style="rounded=1;whiteSpace=wrap;html=1;fontSize=10;" parent="1" vertex="1">
          <mxGeometry x="333" y="80" width="120" height="40" as="geometry" />
        </mxCell>
        <mxCell id="9NMMCVd3kOC8opcWcWRm-6" value="event_log_t" style="text;html=1;align=left;verticalAlign=middle;whiteSpace=wrap;rounded=0;fontSize=10;" parent="1" vertex="1">
          <mxGeometry x="212" y="40" width="120" height="10" as="geometry" />
        </mxCell>
        <mxCell id="9NMMCVd3kOC8opcWcWRm-7" value="message_log_t" style="text;html=1;align=left;verticalAlign=middle;whiteSpace=wrap;rounded=0;fontSize=10;" parent="1" vertex="1">
          <mxGeometry x="208" y="130" width="120" height="10" as="geometry" />
        </mxCell>
        <mxCell id="9NMMCVd3kOC8opcWcWRm-8" value="Serialise to JSON" style="rounded=1;whiteSpace=wrap;html=1;fontSize=10;" parent="1" vertex="1">
          <mxGeometry x="477" y="85" width="120" height="30" as="geometry" />
        </mxCell>
        <mxCell id="1sfbfqyPpxOrwD9zdV-y-46" style="edgeStyle=orthogonalEdgeStyle;rounded=0;orthogonalLoop=1;jettySize=auto;html=1;" edge="1" parent="1" source="9NMMCVd3kOC8opcWcWRm-11" target="1sfbfqyPpxOrwD9zdV-y-30">
          <mxGeometry relative="1" as="geometry">
            <mxPoint x="462" y="190" as="targetPoint" />
          </mxGeometry>
        </mxCell>
        <mxCell id="1sfbfqyPpxOrwD9zdV-y-53" value="prefix experiment_id" style="edgeLabel;html=1;align=center;verticalAlign=middle;resizable=0;points=[];" vertex="1" connectable="0" parent="1sfbfqyPpxOrwD9zdV-y-46">
          <mxGeometry x="-0.3352" y="4" relative="1" as="geometry">
            <mxPoint as="offset" />
          </mxGeometry>
        </mxCell>
        <mxCell id="9NMMCVd3kOC8opcWcWRm-11" value="SD Card" style="shape=cylinder3;whiteSpace=wrap;html=1;boundedLbl=1;backgroundOutline=1;size=15;fontSize=10;" parent="1" vertex="1">
          <mxGeometry x="509" y="160" width="54" height="60" as="geometry" />
        </mxCell>
        <mxCell id="9NMMCVd3kOC8opcWcWRm-15" value="logs.json&lt;br&gt;msg.json&lt;div&gt;metadata.json&lt;/div&gt;" style="text;html=1;align=left;verticalAlign=middle;whiteSpace=wrap;rounded=0;fontSize=10;" parent="1" vertex="1">
          <mxGeometry x="507" y="225" width="70" height="40" as="geometry" />
        </mxCell>
        <mxCell id="1sfbfqyPpxOrwD9zdV-y-29" style="edgeStyle=orthogonalEdgeStyle;rounded=0;orthogonalLoop=1;jettySize=auto;html=1;fontSize=10;" edge="1" parent="1" source="1sfbfqyPpxOrwD9zdV-y-30" target="1sfbfqyPpxOrwD9zdV-y-38">
          <mxGeometry relative="1" as="geometry" />
        </mxCell>
        <mxCell id="1sfbfqyPpxOrwD9zdV-y-52" value="HTTPS" style="edgeLabel;html=1;align=center;verticalAlign=middle;resizable=0;points=[];" vertex="1" connectable="0" parent="1sfbfqyPpxOrwD9zdV-y-29">
          <mxGeometry x="-0.0706" y="-3" relative="1" as="geometry">
            <mxPoint as="offset" />
          </mxGeometry>
        </mxCell>
        <mxCell id="1sfbfqyPpxOrwD9zdV-y-30" value="Wi-Fi" style="sketch=0;verticalLabelPosition=bottom;sketch=0;aspect=fixed;html=1;verticalAlign=top;strokeColor=none;fillColor=#000000;align=center;outlineConnect=0;pointerEvents=1;shape=mxgraph.citrix2.wifi_router;fontSize=10;" vertex="1" parent="1">
          <mxGeometry x="240" y="292" width="44" height="44.08" as="geometry" />
        </mxCell>
        <mxCell id="1sfbfqyPpxOrwD9zdV-y-36" style="edgeStyle=orthogonalEdgeStyle;rounded=0;orthogonalLoop=1;jettySize=auto;html=1;fontSize=10;" edge="1" parent="1" source="1sfbfqyPpxOrwD9zdV-y-38" target="1sfbfqyPpxOrwD9zdV-y-40">
          <mxGeometry relative="1" as="geometry" />
        </mxCell>
        <mxCell id="1sfbfqyPpxOrwD9zdV-y-37" style="edgeStyle=orthogonalEdgeStyle;rounded=0;orthogonalLoop=1;jettySize=auto;html=1;fontSize=10;" edge="1" parent="1" source="1sfbfqyPpxOrwD9zdV-y-38" target="1sfbfqyPpxOrwD9zdV-y-42">
          <mxGeometry relative="1" as="geometry">
            <Array as="points">
              <mxPoint x="418" y="330" />
              <mxPoint x="418" y="388" />
            </Array>
          </mxGeometry>
        </mxCell>
        <mxCell id="1sfbfqyPpxOrwD9zdV-y-38" value="S3" style="sketch=0;pointerEvents=1;shadow=0;dashed=0;html=1;strokeColor=none;fillColor=#DF8C42;labelPosition=center;verticalLabelPosition=bottom;verticalAlign=top;align=center;outlineConnect=0;shape=mxgraph.veeam2.aws_s3;fontSize=10;aspect=fixed;" vertex="1" parent="1">
          <mxGeometry x="354.33" y="287.99999999999994" width="50" height="50" as="geometry" />
        </mxCell>
        <mxCell id="1sfbfqyPpxOrwD9zdV-y-39" style="edgeStyle=orthogonalEdgeStyle;rounded=0;orthogonalLoop=1;jettySize=auto;html=1;fontSize=10;" edge="1" parent="1" source="1sfbfqyPpxOrwD9zdV-y-40" target="1sfbfqyPpxOrwD9zdV-y-41">
          <mxGeometry relative="1" as="geometry" />
        </mxCell>
        <mxCell id="1sfbfqyPpxOrwD9zdV-y-40" value="Glue" style="sketch=0;points=[[0,0,0],[0.25,0,0],[0.5,0,0],[0.75,0,0],[1,0,0],[0,1,0],[0.25,1,0],[0.5,1,0],[0.75,1,0],[1,1,0],[0,0.25,0],[0,0.5,0],[0,0.75,0],[1,0.25,0],[1,0.5,0],[1,0.75,0]];outlineConnect=0;fontColor=#232F3E;fillColor=#8C4FFF;strokeColor=#ffffff;dashed=0;verticalLabelPosition=bottom;verticalAlign=top;align=center;html=1;fontSize=10;fontStyle=0;aspect=fixed;shape=mxgraph.aws4.resourceIcon;resIcon=mxgraph.aws4.glue;" vertex="1" parent="1">
          <mxGeometry x="443.9" y="287.99999999999994" width="50" height="50" as="geometry" />
        </mxCell>
        <mxCell id="1sfbfqyPpxOrwD9zdV-y-41" value="Athena" style="sketch=0;points=[[0,0,0],[0.25,0,0],[0.5,0,0],[0.75,0,0],[1,0,0],[0,1,0],[0.25,1,0],[0.5,1,0],[0.75,1,0],[1,1,0],[0,0.25,0],[0,0.5,0],[0,0.75,0],[1,0.25,0],[1,0.5,0],[1,0.75,0]];outlineConnect=0;fontColor=#232F3E;fillColor=#8C4FFF;strokeColor=#ffffff;dashed=0;verticalLabelPosition=bottom;verticalAlign=top;align=center;html=1;fontSize=10;fontStyle=0;aspect=fixed;shape=mxgraph.aws4.resourceIcon;resIcon=mxgraph.aws4.athena;" vertex="1" parent="1">
          <mxGeometry x="539" y="287.99999999999994" width="50" height="50" as="geometry" />
        </mxCell>
        <mxCell id="1sfbfqyPpxOrwD9zdV-y-42" value="robot ID" style="sketch=0;outlineConnect=0;fontColor=#232F3E;gradientColor=none;fillColor=#505050;strokeColor=none;dashed=0;verticalLabelPosition=bottom;verticalAlign=top;align=center;html=1;fontSize=10;fontStyle=0;aspect=fixed;pointerEvents=1;shape=mxgraph.aws4.folders;" vertex="1" parent="1">
          <mxGeometry x="354.33000000000004" y="370" width="37.35" height="34" as="geometry" />
        </mxCell>
        <mxCell id="1sfbfqyPpxOrwD9zdV-y-43" style="edgeStyle=orthogonalEdgeStyle;rounded=0;orthogonalLoop=1;jettySize=auto;html=1;entryX=0.5;entryY=0;entryDx=0;entryDy=0;entryPerimeter=0;" edge="1" parent="1" source="9NMMCVd3kOC8opcWcWRm-8" target="9NMMCVd3kOC8opcWcWRm-11">
          <mxGeometry relative="1" as="geometry" />
        </mxCell>
        <mxCell id="1sfbfqyPpxOrwD9zdV-y-44" value="write data" style="edgeLabel;html=1;align=center;verticalAlign=middle;resizable=0;points=[];" vertex="1" connectable="0" parent="1sfbfqyPpxOrwD9zdV-y-43">
          <mxGeometry x="-0.0222" y="3" relative="1" as="geometry">
            <mxPoint x="-3" y="-2" as="offset" />
          </mxGeometry>
        </mxCell>
        <mxCell id="1sfbfqyPpxOrwD9zdV-y-49" value="&lt;b&gt;&lt;font style=&quot;font-size: 10px;&quot;&gt;Experimental Phase&lt;/font&gt;&lt;/b&gt;" style="rounded=0;whiteSpace=wrap;html=1;horizontal=0;fillColor=#fff2cc;strokeColor=#d6b656;" vertex="1" parent="1">
          <mxGeometry x="180" y="40" width="20" height="240" as="geometry" />
        </mxCell>
        <mxCell id="1sfbfqyPpxOrwD9zdV-y-50" value="&lt;b&gt;&lt;font style=&quot;font-size: 10px;&quot;&gt;De-Initialisation Phase&lt;/font&gt;&lt;/b&gt;" style="rounded=0;whiteSpace=wrap;html=1;horizontal=0;fillColor=#f8cecc;strokeColor=#b85450;" vertex="1" parent="1">
          <mxGeometry x="180" y="280" width="20" height="140" as="geometry" />
        </mxCell>
      </root>
    </mxGraphModel>
  </diagram>
</mxfile>
